<svg id="Capa_1" enable-background="new 0 0 512 512" height="512" viewBox="0 0 512 512" width="512" xmlns="http://www.w3.org/2000/svg"><g><path d="m483.577 335.232c-4.061-5.345-9.542-9.517-15.783-11.989-10.92-4.325-22.773-3.425-32.737 2.328l-65.792 37.985c-.373 5.55-1.426 11.155-3.267 16.71-11.309 34.118-47.824 53.021-82.542 43.718l-65.035-17.426c-8.002-2.144-12.751-10.369-10.607-18.371 2.144-8.002 10.369-12.751 18.371-10.607l66.028 17.692c20.005 5.36 40.568-6.511 45.928-26.516 5.36-20.005-6.512-40.568-26.516-45.928l-100.807-27.011c-19.351-5.185-39.562-2.525-56.911 7.492l-125.702 72.575c-7.174 4.142-9.633 13.316-5.49 20.49l62.426 108.126c1.989 3.446 5.265 5.959 9.108 6.989s7.937.491 11.382-1.499l56.689-32.729 121.262 7.822c14.825.955 29.461-2.466 42.327-9.894l146.648-84.666c19.295-11.142 24.947-36.96 11.02-55.291z"/><path d="m156 240h200c8.284 0 15-6.716 15-15 0-39.813-20.34-74.962-51.171-95.612-16.612 15.86-39.103 25.612-63.829 25.612s-47.217-9.752-63.829-25.612c-30.831 20.65-51.171 55.799-51.171 95.612 0 8.284 6.716 15 15 15z"/><circle cx="256" cy="62.5" r="62.5"/></g></svg>